<svg width="53" height="50" viewBox="0 0 53 50" fill="none" xmlns="http://www.w3.org/2000/svg">
<rect width="53" height="50" rx="25" fill="#80B3E2"/>
<path d="M8.76989 35V14.6364H13.0753V23.0384H21.8153V14.6364H26.1108V35H21.8153V26.5881H13.0753V35H8.76989ZM40.7074 20.4929C40.6278 19.6908 40.2865 19.0677 39.6832 18.6236C39.08 18.1794 38.2614 17.9574 37.2273 17.9574C36.5246 17.9574 35.9313 18.0568 35.4474 18.2557C34.9635 18.4479 34.5923 18.7164 34.3338 19.0611C34.0819 19.4058 33.956 19.7969 33.956 20.2344C33.9427 20.599 34.0189 20.9171 34.1847 21.1889C34.357 21.4607 34.5923 21.696 34.8906 21.8949C35.1889 22.0871 35.5336 22.2562 35.9247 22.402C36.3158 22.5412 36.7334 22.6605 37.1776 22.7599L39.0071 23.1974C39.8954 23.3963 40.7107 23.6615 41.4531 23.9929C42.1955 24.3243 42.8385 24.732 43.3821 25.2159C43.9257 25.6998 44.3466 26.2699 44.6449 26.9261C44.9498 27.5824 45.1056 28.3348 45.1122 29.1832C45.1056 30.4295 44.7874 31.5099 44.1577 32.4247C43.5346 33.3329 42.633 34.0388 41.4531 34.5426C40.2798 35.0398 38.8646 35.2884 37.2074 35.2884C35.5634 35.2884 34.1316 35.0365 32.9119 34.5327C31.6989 34.0289 30.7509 33.2831 30.0682 32.2955C29.392 31.3011 29.0374 30.0715 29.0043 28.6065H33.1705C33.2169 29.2893 33.4124 29.8594 33.7571 30.3168C34.1084 30.7675 34.5758 31.1089 35.1591 31.3409C35.7491 31.5663 36.4152 31.679 37.1577 31.679C37.8868 31.679 38.5199 31.5729 39.0568 31.3608C39.6004 31.1487 40.0213 30.8537 40.3196 30.4759C40.6179 30.098 40.767 29.6638 40.767 29.1733C40.767 28.7159 40.6312 28.3314 40.3594 28.0199C40.0942 27.7083 39.7031 27.4432 39.1861 27.2244C38.6757 27.0057 38.0492 26.8068 37.3068 26.6278L35.0895 26.071C33.3726 25.6534 32.017 25.0005 31.0227 24.1122C30.0284 23.224 29.5346 22.0275 29.5412 20.5227C29.5346 19.2898 29.8627 18.2126 30.5256 17.2912C31.1951 16.3698 32.1132 15.6506 33.2798 15.1335C34.4465 14.6165 35.7723 14.358 37.2571 14.358C38.7685 14.358 40.0876 14.6165 41.2145 15.1335C42.348 15.6506 43.2296 16.3698 43.8594 17.2912C44.4891 18.2126 44.8139 19.2798 44.8338 20.4929H40.7074Z" fill="white"/>
</svg>
